# xmcd
#
# Track frame offsets:
# 150
# 26600
# 48388
# 74210
# 94347
# 117649
# 140106
# 162725
# 184022
# 210550
# 234561
# 255486
#
# Disc length: 3713 seconds
#
#
# Revision: 3
# Processed by: cddbd v1.4PL0 Copyright (c) Steve Scherf et al.
# Submitted via: FreeRIP 2.52 
#
DISCID=bc0e7f0c
DTITLE=Anita Baker - Rhythm Of Love
DYEAR=1994
DGENRE=
TTITLE0=Rhythm Of Love
TTITLE1=The Look Of Love
TTITLE2=Body And Soul
TTITLE3=Baby
TTITLE4=I Apologize
TTITLE5=Plenty Of Room
TTITLE6=It's Been You
TTITLE7=You Belong To Me
TTITLE8=Wrong Man
TTITLE9=Only For AWhile
TTITLE10=Sometimes I Wonder Why
TTITLE11=My Funny Valentine
EXTD=
EXTT0=
EXTT1=
EXTT2=
EXTT3=
EXTT4=
EXTT5=
EXTT6=
EXTT7=
EXTT8=
EXTT9=
EXTT10=
EXTT11=
PLAYORDER=
